# xmcd
#
# Track frame offsets:
#  150
#  15820
#  32356
#  59048
#  79229
#  95375
#  114129
#  129560
#  145982
#  158094
#
# Disc length: 2402 seconds
#
# Revision: 0
# Processed by: cddbd v1.5.2PL0 Copyright (c) Steve Scherf et al.
# Submitted via: AltoMP3_Maker 3.0
#
DISCID=7209600a
DTITLE=Cody Hughes Davidson Band - Risky Game
DYEAR=1900
DGENRE=
TTITLE0=Travelin' Man
TTITLE1=Don't Lie
TTITLE2=Huntsville Death Row
TTITLE3=Just Let Me Know
TTITLE4=Risky Games
TTITLE5=When it Rains
TTITLE6=Last Call to Boston
TTITLE7=All Choked Up
TTITLE8=Box #10
TTITLE9=Flamingo Paradise
EXTD=
EXTT0=
EXTT1=
EXTT2=
EXTT3=
EXTT4=
EXTT5=
EXTT6=
EXTT7=
EXTT8=
EXTT9=
PLAYORDER=
